<svg width="111" height="88" viewBox="0 0 111 88" fill="none" xmlns="http://www.w3.org/2000/svg">
<path d="M64.1367 33.3359C64.1367 29.0195 61.0898 26.6367 55.7383 26.6367H45.8945V40.543H54.1953C60.6016 40.5234 64.1367 37.9453 64.1367 33.3359ZM99.9766 30.8359C98.1211 24.8008 97.8477 17.3984 98.0625 11.6758C98.2773 5.71875 93.6289 0.25 87.3789 0.25H23.1602C16.8906 0.25 12.2617 5.73828 12.4766 11.6758C12.6719 17.3984 12.418 24.8008 10.5625 30.8359C8.6875 36.8906 5.54297 40.7188 0.367188 41.207V46.7734C5.52344 47.2617 8.6875 51.0898 10.5625 57.1445C12.418 63.1797 12.6914 70.582 12.4766 76.3047C12.2617 82.2617 16.9102 87.7305 23.1602 87.7305H87.3594C93.6289 87.7305 98.2578 82.2422 98.043 76.3047C97.8477 70.582 98.1016 63.1797 99.957 57.1445C101.832 51.0898 104.977 47.2617 110.133 46.7734V41.207C104.996 40.7188 101.832 36.8906 99.9766 30.8359ZM57.6328 67.2617H38.5117V20.7188H57.5352C65.9922 20.7188 71.5391 25.2891 71.5391 32.3203C71.5391 37.2617 67.8086 41.6758 63.043 42.4375V42.6914C69.5273 43.3945 73.8828 47.8867 73.8828 54.0781C73.8828 62.3008 67.7695 67.2617 57.6328 67.2617ZM55.6797 46.0312H45.8945V61.3437H56.1094C62.7891 61.3437 66.3242 58.668 66.3242 53.6289C66.3242 48.6094 62.6914 46.0312 55.6797 46.0312Z" fill="white"/>
</svg>
