<svg width="1183" height="301" viewBox="0 0 1183 301" fill="none" xmlns="http://www.w3.org/2000/svg">
<path d="M72.5152 135.96C62.1552 135.96 52.5352 134.357 43.6552 131.15C34.8986 127.82 27.2519 123.133 20.7152 117.09C14.3019 111.047 9.3069 103.893 5.73023 95.63C2.15357 87.3667 0.365234 78.24 0.365234 68.25C0.365234 58.26 2.15357 49.1333 5.73023 40.87C9.3069 32.6067 14.3019 25.4533 20.7152 19.41C27.2519 13.3667 34.8986 8.74166 43.6552 5.535C52.5352 2.20499 62.1552 0.539993 72.5152 0.539993C85.2186 0.539993 96.4419 2.75999 106.185 7.2C116.052 11.64 124.192 18.0533 130.605 26.44L103.04 51.045C99.2169 46.235 94.9619 42.535 90.2752 39.945C85.7119 37.2317 80.5319 35.875 74.7352 35.875C70.1719 35.875 66.0402 36.615 62.3402 38.095C58.6402 39.575 55.4336 41.7333 52.7202 44.57C50.1302 47.4067 48.0952 50.86 46.6152 54.93C45.1352 58.8767 44.3952 63.3167 44.3952 68.25C44.3952 73.1833 45.1352 77.685 46.6152 81.755C48.0952 85.7017 50.1302 89.0933 52.7202 91.93C55.4336 94.7667 58.6402 96.925 62.3402 98.405C66.0402 99.885 70.1719 100.625 74.7352 100.625C80.5319 100.625 85.7119 99.33 90.2752 96.74C94.9619 94.0267 99.2169 90.265 103.04 85.455L130.605 110.06C124.192 118.323 116.052 124.737 106.185 129.3C96.4419 133.74 85.2186 135.96 72.5152 135.96Z" fill="black"/>
<path d="M227.201 3.49999H270.861V133H227.201V3.49999ZM186.871 133H143.211V3.49999H186.871V133ZM230.161 85.27H183.911V49.38H230.161V85.27Z" fill="black"/>
<path d="M277.838 133L334.448 3.49999H377.368L433.978 133H388.838L347.028 24.22H364.048L322.238 133H277.838ZM311.508 110.43L322.608 78.98H382.178L393.278 110.43H311.508Z" fill="black"/>
<path d="M489.231 135.96C478.377 135.96 467.894 134.727 457.781 132.26C447.667 129.793 439.342 126.587 432.806 122.64L446.866 90.82C453.032 94.3967 459.877 97.295 467.401 99.515C475.047 101.612 482.447 102.66 489.601 102.66C493.794 102.66 497.062 102.413 499.406 101.92C501.872 101.303 503.661 100.502 504.771 99.515C505.881 98.405 506.436 97.11 506.436 95.63C506.436 93.2867 505.141 91.4367 502.551 90.08C499.961 88.7233 496.507 87.6133 492.191 86.75C487.997 85.7633 483.372 84.7767 478.316 83.79C473.259 82.68 468.141 81.2617 462.961 79.535C457.904 77.8083 453.217 75.5267 448.901 72.69C444.707 69.8533 441.316 66.1533 438.726 61.59C436.136 56.9033 434.841 51.1067 434.841 44.2C434.841 36.1833 437.061 28.9067 441.501 22.37C446.064 15.71 452.786 10.4067 461.666 6.45999C470.669 2.51333 481.831 0.539993 495.151 0.539993C503.907 0.539993 512.541 1.46499 521.051 3.31499C529.561 5.16499 537.207 8.00166 543.991 11.825L530.856 43.46C524.442 40.2533 518.214 37.8483 512.171 36.245C506.251 34.6417 500.454 33.84 494.781 33.84C490.587 33.84 487.257 34.21 484.791 34.95C482.324 35.69 480.536 36.6767 479.426 37.91C478.439 39.1433 477.946 40.5 477.946 41.98C477.946 44.2 479.241 45.9883 481.831 47.345C484.421 48.5783 487.812 49.6267 492.006 50.49C496.322 51.3533 501.009 52.2783 506.066 53.265C511.246 54.2517 516.364 55.6083 521.421 57.335C526.477 59.0617 531.102 61.3433 535.296 64.18C539.612 67.0167 543.066 70.7167 545.656 75.28C548.246 79.8433 549.541 85.5167 549.541 92.3C549.541 100.193 547.259 107.47 542.696 114.13C538.256 120.667 531.596 125.97 522.716 130.04C513.836 133.987 502.674 135.96 489.231 135.96Z" fill="black"/>
<path d="M602.493 51.6H660.213V83.05H602.493V51.6ZM605.453 100.07H670.203V133H562.533V3.49999H667.798V36.43H605.453V100.07Z" fill="black"/>
<path d="M5.54523 268V138.5H41.4352L93.2352 223.045H74.3652L124.685 138.5H160.575L160.945 268H121.17L120.8 198.44H127.09L92.6802 256.345H73.4402L37.5502 198.44H45.3202V268H5.54523Z" fill="black"/>
<path d="M249.024 270.96C238.664 270.96 229.044 269.357 220.164 266.15C211.407 262.82 203.761 258.133 197.224 252.09C190.811 246.047 185.816 238.893 182.239 230.63C178.662 222.367 176.874 213.24 176.874 203.25C176.874 193.26 178.662 184.133 182.239 175.87C185.816 167.607 190.811 160.453 197.224 154.41C203.761 148.367 211.407 143.742 220.164 140.535C229.044 137.205 238.664 135.54 249.024 135.54C261.727 135.54 272.951 137.76 282.694 142.2C292.561 146.64 300.701 153.053 307.114 161.44L279.549 186.045C275.726 181.235 271.471 177.535 266.784 174.945C262.221 172.232 257.041 170.875 251.244 170.875C246.681 170.875 242.549 171.615 238.849 173.095C235.149 174.575 231.942 176.733 229.229 179.57C226.639 182.407 224.604 185.86 223.124 189.93C221.644 193.877 220.904 198.317 220.904 203.25C220.904 208.183 221.644 212.685 223.124 216.755C224.604 220.702 226.639 224.093 229.229 226.93C231.942 229.767 235.149 231.925 238.849 233.405C242.549 234.885 246.681 235.625 251.244 235.625C257.041 235.625 262.221 234.33 266.784 231.74C271.471 229.027 275.726 225.265 279.549 220.455L307.114 245.06C300.701 253.323 292.561 259.737 282.694 264.3C272.951 268.74 261.727 270.96 249.024 270.96Z" fill="black"/>
<path d="M384.905 270.96C374.422 270.96 364.678 269.295 355.675 265.965C346.795 262.635 339.087 257.948 332.55 251.905C326.013 245.738 320.895 238.523 317.195 230.26C313.618 221.997 311.83 212.993 311.83 203.25C311.83 193.383 313.618 184.38 317.195 176.24C320.895 167.977 326.013 160.823 332.55 154.78C339.087 148.613 346.795 143.865 355.675 140.535C364.678 137.205 374.422 135.54 384.905 135.54C395.512 135.54 405.255 137.205 414.135 140.535C423.015 143.865 430.723 148.613 437.26 154.78C443.797 160.823 448.853 167.977 452.43 176.24C456.13 184.38 457.98 193.383 457.98 203.25C457.98 212.993 456.13 221.997 452.43 230.26C448.853 238.523 443.797 245.738 437.26 251.905C430.723 257.948 423.015 262.635 414.135 265.965C405.255 269.295 395.512 270.96 384.905 270.96ZM427.27 300.745C421.227 300.745 415.615 300.128 410.435 298.895C405.255 297.785 400.198 295.873 395.265 293.16C390.455 290.447 385.398 286.685 380.095 281.875C374.792 277.188 368.872 271.33 362.335 264.3L407.475 253.2C410.435 257.763 412.963 261.278 415.06 263.745C417.157 266.212 419.192 267.938 421.165 268.925C423.262 269.912 425.605 270.405 428.195 270.405C434.608 270.405 440.59 267.63 446.14 262.08L465.01 284.28C455.76 295.257 443.18 300.745 427.27 300.745ZM384.905 235.625C388.975 235.625 392.737 234.885 396.19 233.405C399.767 231.925 402.85 229.828 405.44 227.115C408.153 224.278 410.25 220.887 411.73 216.94C413.21 212.87 413.95 208.307 413.95 203.25C413.95 198.193 413.21 193.692 411.73 189.745C410.25 185.675 408.153 182.283 405.44 179.57C402.85 176.733 399.767 174.575 396.19 173.095C392.737 171.615 388.975 170.875 384.905 170.875C380.835 170.875 377.012 171.615 373.435 173.095C369.982 174.575 366.898 176.733 364.185 179.57C361.595 182.283 359.56 185.675 358.08 189.745C356.6 193.692 355.86 198.193 355.86 203.25C355.86 208.307 356.6 212.87 358.08 216.94C359.56 220.887 361.595 224.278 364.185 227.115C366.898 229.828 369.982 231.925 373.435 233.405C377.012 234.885 380.835 235.625 384.905 235.625Z" fill="black"/>
<path d="M535.802 270.96C515.945 270.96 500.466 265.595 489.366 254.865C478.266 244.135 472.716 229.088 472.716 209.725V138.5H516.376V208.43C516.376 218.297 518.165 225.327 521.742 229.52C525.318 233.59 530.128 235.625 536.172 235.625C542.338 235.625 547.148 233.59 550.602 229.52C554.178 225.327 555.966 218.297 555.966 208.43V138.5H598.886V209.725C598.886 229.088 593.337 244.135 582.237 254.865C571.137 265.595 555.658 270.96 535.802 270.96Z" fill="black"/>
<path d="M686.795 270.96C676.311 270.96 666.568 269.295 657.565 265.965C648.685 262.635 640.976 257.948 634.44 251.905C627.903 245.738 622.785 238.523 619.085 230.26C615.508 221.997 613.72 212.993 613.72 203.25C613.72 193.383 615.508 184.38 619.085 176.24C622.785 167.977 627.903 160.823 634.44 154.78C640.976 148.613 648.685 143.865 657.565 140.535C666.568 137.205 676.311 135.54 686.795 135.54C697.401 135.54 707.145 137.205 716.025 140.535C724.905 143.865 732.613 148.613 739.15 154.78C745.686 160.823 750.743 167.977 754.32 176.24C758.02 184.38 759.87 193.383 759.87 203.25C759.87 212.993 758.02 221.997 754.32 230.26C750.743 238.523 745.686 245.738 739.15 251.905C732.613 257.948 724.905 262.635 716.025 265.965C707.145 269.295 697.401 270.96 686.795 270.96ZM686.795 235.625C690.865 235.625 694.626 234.885 698.08 233.405C701.656 231.925 704.74 229.828 707.33 227.115C710.043 224.278 712.14 220.887 713.62 216.94C715.1 212.87 715.84 208.307 715.84 203.25C715.84 198.193 715.1 193.692 713.62 189.745C712.14 185.675 710.043 182.283 707.33 179.57C704.74 176.733 701.656 174.575 698.08 173.095C694.626 171.615 690.865 170.875 686.795 170.875C682.725 170.875 678.901 171.615 675.325 173.095C671.871 174.575 668.788 176.733 666.075 179.57C663.485 182.283 661.45 185.675 659.97 189.745C658.49 193.692 657.75 198.193 657.75 203.25C657.75 208.307 658.49 212.87 659.97 216.94C661.45 220.887 663.485 224.278 666.075 227.115C668.788 229.828 671.871 231.925 675.325 233.405C678.901 234.885 682.725 235.625 686.795 235.625Z" fill="black"/>
<path d="M803.945 268L762.505 138.5H807.46L840.945 247.835H818.375L853.895 138.5H894.04L927.155 247.835H905.51L940.475 138.5H981.915L940.475 268H893.67L866.66 178.46H879.24L850.75 268H803.945Z" fill="black"/>
<path d="M991.61 268V138.5H1027.5L1093.36 217.31H1076.71V138.5H1119.26V268H1083.37L1017.51 189.19H1034.16V268H991.61Z" fill="black"/>
<path d="M1157.87 269.85C1150.96 269.85 1145.17 267.63 1140.48 263.19C1135.79 258.627 1133.45 252.83 1133.45 245.8C1133.45 238.647 1135.79 232.912 1140.48 228.595C1145.17 224.278 1150.96 222.12 1157.87 222.12C1164.78 222.12 1170.57 224.278 1175.26 228.595C1179.95 232.912 1182.29 238.647 1182.29 245.8C1182.29 252.83 1179.95 258.627 1175.26 263.19C1170.57 267.63 1164.78 269.85 1157.87 269.85Z" fill="black"/>
</svg>
