<svg width="230" height="141" viewBox="0 0 230 141" fill="none" xmlns="http://www.w3.org/2000/svg">
<path fill-rule="evenodd" clip-rule="evenodd" d="M230 0H0V141H230V0ZM52.8711 115.9C66.5811 115.96 87.8584 116.053 104.055 114.6H127.095V64.6801L145.015 96.6801H162.936L180.855 64.6801V114.6H203.896V25H179.575L153.976 72.36L128.375 25H104.055H47.7197C38.7598 25 32.2324 27.048 28.1357 31.144C24.125 35.1547 22.1201 41.64 22.1201 50.6V91.5601C22.1201 99.9227 24.083 106.067 28.0078 109.992C31.9336 113.917 38.0771 115.88 46.4404 115.88C48.3076 115.88 50.4736 115.889 52.8711 115.9ZM104.055 42.92V94.6C102.414 94.7009 99.9551 94.9242 97.207 95.1952C94.667 95.4457 91.8809 95.7369 89.2676 96.0101C87.2949 96.2164 85.4209 96.4124 83.8252 96.5726C82.0928 96.7467 80.6895 96.8787 79.8477 96.936C76.1787 97.192 73.1494 97.3627 70.7598 97.448L63.8477 97.704C61.5439 97.7893 59.3252 97.8746 57.1924 97.96H51.3037C49.5117 97.96 48.0186 97.4054 46.8242 96.296C45.7148 95.1013 45.1602 93.5227 45.1602 91.5601V50.6C45.1602 45.48 47.7197 42.92 52.8398 42.92H104.055Z" fill="#FF5C00"/>
</svg>
