<svg width="148" height="116" viewBox="0 0 148 116" fill="none" xmlns="http://www.w3.org/2000/svg">
<path d="M124.85 10.5546C121.67 7.1448 116.33 6.97485 112.924 10.1407L23.4215 93.7246C20.0155 96.8904 19.8602 102.221 23.0404 105.631C26.2205 109.041 31.5599 109.211 34.9659 106.045L124.469 22.4612C127.875 19.2953 128.03 13.9644 124.85 10.5546ZM126.831 48.5476C122.315 49.6687 119.571 54.2428 120.706 58.7547L128.804 91.0102L96.5097 99.0288C91.9942 100.15 89.2496 104.724 90.3851 109.236C91.5205 113.748 96.1091 116.501 100.625 115.38L141.083 105.334C145.599 104.213 148.343 99.6391 147.208 95.1272L137.034 54.7006C135.899 50.1887 131.31 47.4354 126.795 48.5565L126.831 48.5476ZM57.505 6.9499C56.3695 2.438 51.781 -0.315286 47.2655 0.805871L6.80678 10.8514C2.29131 11.9726 -0.453269 16.5466 0.682194 21.0585L10.8559 61.4852C11.9914 65.9971 16.58 68.7504 21.0955 67.6292C25.6109 66.5081 28.3555 61.934 27.22 57.4221L19.0857 25.1755L51.3804 17.157C55.8959 16.0359 58.6404 11.4618 57.505 6.9499Z" fill="#FF5C00"/>
</svg>
