<svg width="215" height="203" viewBox="0 0 215 203" fill="none" xmlns="http://www.w3.org/2000/svg">
<g clip-path="url(#clip0_254_468)">
<path d="M158.391 54.2607C155.211 50.8509 149.872 50.681 146.466 53.8469L56.963 137.431C53.557 140.597 53.4017 145.928 56.5819 149.337C59.762 152.747 65.1014 152.917 68.5074 149.751L158.01 66.1674C161.416 63.0015 161.571 57.6705 158.391 54.2607ZM160.372 92.2537C155.857 93.3749 153.112 97.9489 154.248 102.461L162.346 134.716L130.051 142.735C125.536 143.856 122.791 148.43 123.927 152.942C125.062 157.454 129.651 160.207 134.166 159.086L174.625 149.04C179.14 147.919 181.885 143.345 180.749 138.833L170.576 98.4067C169.44 93.8948 164.852 91.1415 160.336 92.2627L160.372 92.2537ZM91.0465 50.656C89.911 46.1441 85.3225 43.3909 80.807 44.512L40.3483 54.5576C35.8328 55.6787 33.0882 60.2528 34.2237 64.7647L44.3974 105.191C45.5329 109.703 50.1215 112.457 54.637 111.335C59.1524 110.214 61.897 105.64 60.7615 101.128L52.6272 68.8817L84.9219 60.8632C89.4374 59.742 92.182 55.168 91.0465 50.656Z" fill="#009AFA"/>
</g>
<defs>
<clipPath id="clip0_254_468">
<rect width="168.708" height="134.54" fill="white" transform="translate(69.7656 0.715088) rotate(30.9651)"/>
</clipPath>
</defs>
</svg>
