<svg width="95" height="100" viewBox="0 0 95 100" fill="none" xmlns="http://www.w3.org/2000/svg">
<g filter="url(#filter0_d_323_107)">
<path d="M75.375 30.6719C80.8906 29.375 85 24.4219 85 18.5C85 11.5937 79.4063 6 72.5 6C65.7187 6 60.2031 11.3906 60 18.1094L31.2812 29.6094C29.0156 27.375 25.9219 26 22.5 26C15.5937 26 10 31.5937 10 38.5C10 45.4063 15.5937 51 22.5 51C24.4062 51 26.2187 50.5781 27.8281 49.8125L50.5781 69.7187C50.2031 70.9062 50 72.1875 50 73.5C50 80.4063 55.5937 86 62.5 86C69.4063 86 75 80.4063 75 73.5C75 69.1719 72.8125 65.3594 69.4688 63.125L75.375 30.6719ZM34.4219 42.2812C34.7656 41.2031 34.9687 40.0625 35 38.8906L63.7187 27.4062C64.2812 27.9531 64.875 28.4531 65.5312 28.8906L59.625 61.3281C58.7656 61.5313 57.9375 61.8125 57.1562 62.1875L34.4219 42.2812Z" fill="#4D4D4D"/>
</g>
<defs>
<filter id="filter0_d_323_107" x="0" y="0" width="95" height="100" filterUnits="userSpaceOnUse" color-interpolation-filters="sRGB">
<feFlood flood-opacity="0" result="BackgroundImageFix"/>
<feColorMatrix in="SourceAlpha" type="matrix" values="0 0 0 0 0 0 0 0 0 0 0 0 0 0 0 0 0 0 127 0" result="hardAlpha"/>
<feOffset dy="4"/>
<feGaussianBlur stdDeviation="5"/>
<feComposite in2="hardAlpha" operator="out"/>
<feColorMatrix type="matrix" values="0 0 0 0 0 0 0 0 0 0 0 0 0 0 0 0 0 0 0.25 0"/>
<feBlend mode="normal" in2="BackgroundImageFix" result="effect1_dropShadow_323_107"/>
<feBlend mode="normal" in="SourceGraphic" in2="effect1_dropShadow_323_107" result="shape"/>
</filter>
</defs>
</svg>
