<svg width="75" height="75" viewBox="0 0 75 75" fill="none" xmlns="http://www.w3.org/2000/svg">
<path d="M42.1875 4.6875C42.1875 2.09473 40.0928 0 37.5 0C34.9072 0 32.8125 2.09473 32.8125 4.6875V40.2393L22.0605 29.4873C20.2295 27.6563 17.2559 27.6563 15.4248 29.4873C13.5938 31.3184 13.5938 34.292 15.4248 36.123L34.1748 54.873C36.0059 56.7041 38.9795 56.7041 40.8105 54.873L59.5605 36.123C61.3916 34.292 61.3916 31.3184 59.5605 29.4873C57.7295 27.6563 54.7559 27.6563 52.9248 29.4873L42.1875 40.2393V4.6875ZM9.375 51.5625C4.2041 51.5625 0 55.7666 0 60.9375V65.625C0 70.7959 4.2041 75 9.375 75H65.625C70.7959 75 75 70.7959 75 65.625V60.9375C75 55.7666 70.7959 51.5625 65.625 51.5625H50.7568L44.1211 58.1982C40.459 61.8603 34.5264 61.8603 30.8643 58.1982L24.2432 51.5625H9.375ZM63.2812 59.7656C64.2137 59.7656 65.1079 60.136 65.7672 60.7953C66.4265 61.4546 66.7969 62.3488 66.7969 63.2812C66.7969 64.2137 66.4265 65.1079 65.7672 65.7672C65.1079 66.4265 64.2137 66.7969 63.2812 66.7969C62.3488 66.7969 61.4546 66.4265 60.7953 65.7672C60.136 65.1079 59.7656 64.2137 59.7656 63.2812C59.7656 62.3488 60.136 61.4546 60.7953 60.7953C61.4546 60.136 62.3488 59.7656 63.2812 59.7656Z" fill="#FF5C00"/>
</svg>
