<svg width="70" height="100" viewBox="0 0 70 100" fill="none" xmlns="http://www.w3.org/2000/svg">
<path d="M0 18.7095C0 8.3765 8.37652 0 18.7096 0H50.8127C61.1457 0 69.5223 8.3765 69.5223 18.7095C69.5223 25.2523 66.1637 31.0109 61.0764 34.3549C66.1637 37.699 69.5223 43.4574 69.5223 50.0004C69.5223 60.3334 61.1457 68.71 50.8127 68.71H50.4064C45.5623 68.71 41.148 66.8689 37.8254 63.8484V81.0873C37.8254 91.558 29.2299 100 18.8103 100C8.50314 100 0 91.649 0 81.2904C0 74.7478 3.3583 68.9896 8.44516 65.6455C3.3583 62.3014 0 56.543 0 50.0004C0 43.4574 3.35859 37.699 8.4458 34.3549C3.35859 31.0109 0 25.2523 0 18.7095ZM31.6969 37.4193H18.7096C11.7612 37.4193 6.12848 43.0521 6.12848 50.0004C6.12848 56.9219 11.7177 62.5379 18.6291 62.5812C18.6559 62.5811 18.6826 62.5811 18.7096 62.5811H31.6969V37.4193ZM37.8254 50.0004C37.8254 56.9486 43.458 62.5814 50.4064 62.5814H50.8127C57.7611 62.5814 63.3937 56.9486 63.3937 50.0004C63.3937 43.0521 57.7611 37.4193 50.8127 37.4193H50.4064C43.458 37.4193 37.8254 43.0521 37.8254 50.0004ZM18.7096 68.71C18.6826 68.71 18.6559 68.7098 18.6291 68.7098C11.7177 68.7529 6.12848 74.3689 6.12848 81.2904C6.12848 88.2133 11.8364 93.8715 18.8103 93.8715C25.8967 93.8715 31.6969 88.1223 31.6969 81.0873V68.71H18.7096ZM18.7096 6.12848C11.7612 6.12848 6.12848 11.7612 6.12848 18.7095C6.12848 25.6578 11.7612 31.2904 18.7096 31.2904H31.6969V6.12848H18.7096ZM37.8254 31.2904H50.8127C57.7611 31.2904 63.3937 25.6578 63.3937 18.7095C63.3937 11.7612 57.7611 6.12848 50.8127 6.12848H37.8254V31.2904Z" fill="white"/>
</svg>
