<svg width="1183" height="374" viewBox="0 0 1183 374" fill="none" xmlns="http://www.w3.org/2000/svg">
<g clip-path="url(#clip0_259_764)">
<path d="M816.661 168.879L808.476 147.187L759.747 165.524L767.905 187.204C771.112 195.727 780.594 200.024 789.117 196.816L807.048 190.091C815.572 186.884 819.868 177.402 816.661 168.879ZM805.983 138.084L806.35 135.28L812.27 91.4411C813.078 85.3829 810.924 79.3062 806.422 75.1352L746.414 19.3377C743.848 16.9484 740.134 16.169 736.85 17.3603L759.32 77.1311C761.371 77.0922 763.452 77.4866 765.434 78.3847C772.532 81.6012 775.681 89.9692 772.464 97.0669C769.248 104.165 760.88 107.313 753.782 104.097C746.685 100.881 743.536 92.5126 746.752 85.4149C747.65 83.4329 748.955 81.7644 750.523 80.4411L728.027 20.6583C724.76 21.9542 722.466 24.9502 722.139 28.4501L713.79 109.993C713.167 116.071 715.542 122.086 720.143 126.109L753.495 155.169L755.619 157.036L805.983 138.084Z" fill="#009AFA"/>
</g>
<path d="M72.5152 193.245C62.1552 193.245 52.5352 191.642 43.6552 188.435C34.8986 185.105 27.2519 180.418 20.7152 174.375C14.3019 168.332 9.3069 161.178 5.73023 152.915C2.15357 144.652 0.365234 135.525 0.365234 125.535C0.365234 115.545 2.15357 106.418 5.73023 98.1549C9.3069 89.8916 14.3019 82.7383 20.7152 76.695C27.2519 70.6516 34.8986 66.0266 43.6552 62.82C52.5352 59.49 62.1552 57.825 72.5152 57.825C85.2186 57.825 96.4419 60.045 106.185 64.485C116.052 68.9249 124.192 75.3383 130.605 83.7249L103.04 108.33C99.2169 103.52 94.9619 99.8199 90.2752 97.2299C85.7119 94.5166 80.5319 93.16 74.7352 93.16C70.1719 93.16 66.0402 93.8999 62.3402 95.38C58.6402 96.8599 55.4336 99.0183 52.7202 101.855C50.1302 104.692 48.0952 108.145 46.6152 112.215C45.1352 116.162 44.3952 120.602 44.3952 125.535C44.3952 130.468 45.1352 134.97 46.6152 139.04C48.0952 142.987 50.1302 146.378 52.7202 149.215C55.4336 152.052 58.6402 154.21 62.3402 155.69C66.0402 157.17 70.1719 157.91 74.7352 157.91C80.5319 157.91 85.7119 156.615 90.2752 154.025C94.9619 151.312 99.2169 147.55 103.04 142.74L130.605 167.345C124.192 175.608 116.052 182.022 106.185 186.585C96.4419 191.025 85.2186 193.245 72.5152 193.245Z" fill="white"/>
<path d="M227.201 60.7849H270.861V190.285H227.201V60.7849ZM186.871 190.285H143.211V60.7849H186.871V190.285ZM230.161 142.555H183.911V106.665H230.161V142.555Z" fill="white"/>
<path d="M277.838 190.285L334.448 60.7849H377.368L433.978 190.285H388.838L347.028 81.505H364.048L322.238 190.285H277.838ZM311.508 167.715L322.608 136.265H382.178L393.278 167.715H311.508Z" fill="white"/>
<path d="M489.231 193.245C478.377 193.245 467.894 192.012 457.781 189.545C447.667 187.078 439.342 183.872 432.806 179.925L446.866 148.105C453.032 151.682 459.877 154.58 467.401 156.8C475.047 158.897 482.447 159.945 489.601 159.945C493.794 159.945 497.062 159.698 499.406 159.205C501.872 158.588 503.661 157.787 504.771 156.8C505.881 155.69 506.436 154.395 506.436 152.915C506.436 150.572 505.141 148.722 502.551 147.365C499.961 146.008 496.507 144.898 492.191 144.035C487.997 143.048 483.372 142.062 478.316 141.075C473.259 139.965 468.141 138.547 462.961 136.82C457.904 135.093 453.217 132.812 448.901 129.975C444.707 127.138 441.316 123.438 438.726 118.875C436.136 114.188 434.841 108.392 434.841 101.485C434.841 93.4683 437.061 86.1916 441.501 79.6549C446.064 72.995 452.786 67.6916 461.666 63.745C470.669 59.7983 481.831 57.825 495.151 57.825C503.907 57.825 512.541 58.75 521.051 60.5999C529.561 62.4499 537.207 65.2866 543.991 69.1099L530.856 100.745C524.442 97.5383 518.214 95.1333 512.171 93.53C506.251 91.9266 500.454 91.125 494.781 91.125C490.587 91.125 487.257 91.495 484.791 92.235C482.324 92.9749 480.536 93.9616 479.426 95.195C478.439 96.4283 477.946 97.785 477.946 99.265C477.946 101.485 479.241 103.273 481.831 104.63C484.421 105.863 487.812 106.912 492.006 107.775C496.322 108.638 501.009 109.563 506.066 110.55C511.246 111.537 516.364 112.893 521.421 114.62C526.477 116.347 531.102 118.628 535.296 121.465C539.612 124.302 543.066 128.002 545.656 132.565C548.246 137.128 549.541 142.802 549.541 149.585C549.541 157.478 547.259 164.755 542.696 171.415C538.256 177.952 531.596 183.255 522.716 187.325C513.836 191.272 502.674 193.245 489.231 193.245Z" fill="white"/>
<path d="M602.493 108.885H660.213V140.335H602.493V108.885ZM605.453 157.355H670.203V190.285H562.533V60.7849H667.798V93.715H605.453V157.355Z" fill="white"/>
<path d="M5.54523 340.285V210.785H41.4352L93.2352 295.33H74.3652L124.685 210.785H160.575L160.945 340.285H121.17L120.8 270.725H127.09L92.6802 328.63H73.4402L37.5502 270.725H45.3202V340.285H5.54523Z" fill="white"/>
<path d="M249.024 343.245C238.664 343.245 229.044 341.642 220.164 338.435C211.407 335.105 203.761 330.418 197.224 324.375C190.811 318.332 185.816 311.178 182.239 302.915C178.662 294.652 176.874 285.525 176.874 275.535C176.874 265.545 178.662 256.418 182.239 248.155C185.816 239.892 190.811 232.738 197.224 226.695C203.761 220.652 211.407 216.027 220.164 212.82C229.044 209.49 238.664 207.825 249.024 207.825C261.727 207.825 272.951 210.045 282.694 214.485C292.561 218.925 300.701 225.338 307.114 233.725L279.549 258.33C275.726 253.52 271.471 249.82 266.784 247.23C262.221 244.517 257.041 243.16 251.244 243.16C246.681 243.16 242.549 243.9 238.849 245.38C235.149 246.86 231.942 249.018 229.229 251.855C226.639 254.692 224.604 258.145 223.124 262.215C221.644 266.162 220.904 270.602 220.904 275.535C220.904 280.468 221.644 284.97 223.124 289.04C224.604 292.987 226.639 296.378 229.229 299.215C231.942 302.052 235.149 304.21 238.849 305.69C242.549 307.17 246.681 307.91 251.244 307.91C257.041 307.91 262.221 306.615 266.784 304.025C271.471 301.312 275.726 297.55 279.549 292.74L307.114 317.345C300.701 325.608 292.561 332.022 282.694 336.585C272.951 341.025 261.727 343.245 249.024 343.245Z" fill="white"/>
<path d="M384.905 343.245C374.422 343.245 364.678 341.58 355.675 338.25C346.795 334.92 339.087 330.233 332.55 324.19C326.013 318.023 320.895 310.808 317.195 302.545C313.618 294.282 311.83 285.278 311.83 275.535C311.83 265.668 313.618 256.665 317.195 248.525C320.895 240.262 326.013 233.108 332.55 227.065C339.087 220.898 346.795 216.15 355.675 212.82C364.678 209.49 374.422 207.825 384.905 207.825C395.512 207.825 405.255 209.49 414.135 212.82C423.015 216.15 430.723 220.898 437.26 227.065C443.797 233.108 448.853 240.262 452.43 248.525C456.13 256.665 457.98 265.668 457.98 275.535C457.98 285.278 456.13 294.282 452.43 302.545C448.853 310.808 443.797 318.023 437.26 324.19C430.723 330.233 423.015 334.92 414.135 338.25C405.255 341.58 395.512 343.245 384.905 343.245ZM427.27 373.03C421.227 373.03 415.615 372.413 410.435 371.18C405.255 370.07 400.198 368.158 395.265 365.445C390.455 362.732 385.398 358.97 380.095 354.16C374.792 349.473 368.872 343.615 362.335 336.585L407.475 325.485C410.435 330.048 412.963 333.563 415.06 336.03C417.157 338.497 419.192 340.223 421.165 341.21C423.262 342.197 425.605 342.69 428.195 342.69C434.608 342.69 440.59 339.915 446.14 334.365L465.01 356.565C455.76 367.542 443.18 373.03 427.27 373.03ZM384.905 307.91C388.975 307.91 392.737 307.17 396.19 305.69C399.767 304.21 402.85 302.113 405.44 299.4C408.153 296.563 410.25 293.172 411.73 289.225C413.21 285.155 413.95 280.592 413.95 275.535C413.95 270.478 413.21 265.977 411.73 262.03C410.25 257.96 408.153 254.568 405.44 251.855C402.85 249.018 399.767 246.86 396.19 245.38C392.737 243.9 388.975 243.16 384.905 243.16C380.835 243.16 377.012 243.9 373.435 245.38C369.982 246.86 366.898 249.018 364.185 251.855C361.595 254.568 359.56 257.96 358.08 262.03C356.6 265.977 355.86 270.478 355.86 275.535C355.86 280.592 356.6 285.155 358.08 289.225C359.56 293.172 361.595 296.563 364.185 299.4C366.898 302.113 369.982 304.21 373.435 305.69C377.012 307.17 380.835 307.91 384.905 307.91Z" fill="white"/>
<path d="M535.802 343.245C515.945 343.245 500.466 337.88 489.366 327.15C478.266 316.42 472.716 301.373 472.716 282.01V210.785H516.376V280.715C516.376 290.582 518.165 297.612 521.742 301.805C525.318 305.875 530.128 307.91 536.172 307.91C542.338 307.91 547.148 305.875 550.602 301.805C554.178 297.612 555.966 290.582 555.966 280.715V210.785H598.886V282.01C598.886 301.373 593.337 316.42 582.237 327.15C571.137 337.88 555.658 343.245 535.802 343.245Z" fill="white"/>
<path d="M686.795 343.245C676.311 343.245 666.568 341.58 657.565 338.25C648.685 334.92 640.976 330.233 634.44 324.19C627.903 318.023 622.785 310.808 619.085 302.545C615.508 294.282 613.72 285.278 613.72 275.535C613.72 265.668 615.508 256.665 619.085 248.525C622.785 240.262 627.903 233.108 634.44 227.065C640.976 220.898 648.685 216.15 657.565 212.82C666.568 209.49 676.311 207.825 686.795 207.825C697.401 207.825 707.145 209.49 716.025 212.82C724.905 216.15 732.613 220.898 739.15 227.065C745.686 233.108 750.743 240.262 754.32 248.525C758.02 256.665 759.87 265.668 759.87 275.535C759.87 285.278 758.02 294.282 754.32 302.545C750.743 310.808 745.686 318.023 739.15 324.19C732.613 330.233 724.905 334.92 716.025 338.25C707.145 341.58 697.401 343.245 686.795 343.245ZM686.795 307.91C690.865 307.91 694.626 307.17 698.08 305.69C701.656 304.21 704.74 302.113 707.33 299.4C710.043 296.563 712.14 293.172 713.62 289.225C715.1 285.155 715.84 280.592 715.84 275.535C715.84 270.478 715.1 265.977 713.62 262.03C712.14 257.96 710.043 254.568 707.33 251.855C704.74 249.018 701.656 246.86 698.08 245.38C694.626 243.9 690.865 243.16 686.795 243.16C682.725 243.16 678.901 243.9 675.325 245.38C671.871 246.86 668.788 249.018 666.075 251.855C663.485 254.568 661.45 257.96 659.97 262.03C658.49 265.977 657.75 270.478 657.75 275.535C657.75 280.592 658.49 285.155 659.97 289.225C661.45 293.172 663.485 296.563 666.075 299.4C668.788 302.113 671.871 304.21 675.325 305.69C678.901 307.17 682.725 307.91 686.795 307.91Z" fill="white"/>
<path d="M803.945 340.285L762.505 210.785H807.46L840.945 320.12H818.375L853.895 210.785H894.04L927.155 320.12H905.51L940.475 210.785H981.915L940.475 340.285H893.67L866.66 250.745H879.24L850.75 340.285H803.945Z" fill="white"/>
<path d="M991.61 340.285V210.785H1027.5L1093.36 289.595H1076.71V210.785H1119.26V340.285H1083.37L1017.51 261.475H1034.16V340.285H991.61Z" fill="white"/>
<path d="M1157.87 342.135C1150.96 342.135 1145.17 339.915 1140.48 335.475C1135.79 330.912 1133.45 325.115 1133.45 318.085C1133.45 310.932 1135.79 305.197 1140.48 300.88C1145.17 296.563 1150.96 294.405 1157.87 294.405C1164.78 294.405 1170.57 296.563 1175.26 300.88C1179.95 305.197 1182.29 310.932 1182.29 318.085C1182.29 325.115 1179.95 330.912 1175.26 335.475C1170.57 339.915 1164.78 342.135 1157.87 342.135Z" fill="white"/>
<g clip-path="url(#clip1_259_764)">
<path d="M972.391 53.5457C969.211 50.1359 963.871 49.9659 960.465 53.1318L870.963 136.716C867.557 139.882 867.401 145.212 870.581 148.622C873.762 152.032 879.101 152.202 882.507 149.036L972.01 65.4523C975.416 62.2864 975.571 56.9555 972.391 53.5457ZM974.372 91.5387C969.856 92.6598 967.112 97.2339 968.247 101.746L976.345 134.001L944.051 142.02C939.535 143.141 936.791 147.715 937.926 152.227C939.062 156.739 943.65 159.492 948.166 158.371L988.624 148.325C993.14 147.204 995.884 142.63 994.749 138.118L984.575 97.6917C983.44 93.1798 978.851 90.4265 974.336 91.5476L974.372 91.5387ZM905.046 49.941C903.911 45.4291 899.322 42.6758 894.806 43.797L854.348 53.8425C849.832 54.9637 847.088 59.5377 848.223 64.0496L858.397 104.476C859.532 108.988 864.121 111.741 868.636 110.62C873.152 109.499 875.897 104.925 874.761 100.413L866.627 68.1666L898.921 60.1481C903.437 59.0269 906.181 54.4529 905.046 49.941Z" fill="#009AFA"/>
</g>
<g clip-path="url(#clip2_259_764)">
<path d="M1051.52 171.522C1051.04 173.501 1051.15 175.569 1051.84 177.481L1055.27 186.848C1056.32 189.719 1059.58 192.631 1062.55 193.346L1081.89 197.999C1084.85 198.711 1089.07 197.599 1091.31 195.519L1098.61 188.736C1099.87 187.563 1101.22 185.252 1101.62 183.577L1104.63 171.267L1054.45 159.195L1051.52 171.522ZM1110.93 34.7716C1078.92 27.1777 1049.46 47.5683 1042.49 76.5233C1039.14 90.4712 1041.23 104.428 1047.4 116.204C1051.16 123.372 1056.27 137.699 1056.86 148.885C1056.85 148.966 1056.85 149.055 1056.84 149.141L1107.08 161.228C1107.11 161.147 1107.15 161.073 1107.18 160.991C1112.79 151.296 1123.86 140.864 1130.47 136.19C1141.26 128.779 1149.46 117.319 1152.88 103.082C1160.16 72.8165 1141.41 42.1066 1110.93 34.7716ZM1121.49 123.79C1115.23 128.219 1107 135.698 1100.37 143.94L1070.7 136.802C1068.54 126.445 1064.62 116.042 1061.06 109.254C1056.41 100.384 1055.2 89.8877 1057.55 80.1449C1062.22 60.7222 1082.22 43.9072 1107.02 49.7893C1129.44 55.184 1143.1 77.5548 1137.83 99.4604C1135.49 109.203 1129.65 118.007 1121.49 123.79ZM1099.86 58.7071C1086.03 55.3797 1072.06 63.9538 1068.72 77.8137C1068.05 80.5932 1069.76 83.3822 1072.53 84.0494C1075.3 84.7167 1078.09 82.9938 1078.76 80.2281C1080.76 71.909 1089.14 66.767 1097.44 68.7641C1100.21 69.4314 1103 67.7249 1103.67 64.946C1104.34 62.1671 1102.62 59.371 1099.86 58.7071Z" fill="#009AFA"/>
</g>
<defs>
<clipPath id="clip0_259_764">
<rect width="150.556" height="150.556" fill="white" transform="translate(866.276 72.4288) rotate(114.378)"/>
</clipPath>
<clipPath id="clip1_259_764">
<rect width="168.708" height="134.54" fill="white" transform="translate(883.766) rotate(30.9651)"/>
</clipPath>
<clipPath id="clip2_259_764">
<rect width="123.862" height="165.505" fill="white" transform="translate(1050.71 20.2849) rotate(13.5277)"/>
</clipPath>
</defs>
</svg>
