<svg width="1183" height="375" viewBox="0 0 1183 375" fill="none" xmlns="http://www.w3.org/2000/svg">
<path d="M816.661 169.879L808.476 148.187L759.747 166.524L767.905 188.204C771.112 196.727 780.594 201.024 789.117 197.816L807.048 191.091C815.572 187.884 819.868 178.402 816.661 169.879ZM805.983 139.084L806.35 136.28L812.27 92.4411C813.078 86.3829 810.924 80.3062 806.422 76.1352L746.414 20.3377C743.848 17.9484 740.134 17.169 736.85 18.3603L759.32 78.1311C761.371 78.0922 763.452 78.4866 765.434 79.3847C772.532 82.6012 775.681 90.9692 772.464 98.0669C769.248 105.165 760.88 108.313 753.782 105.097C746.685 101.881 743.536 93.5126 746.752 86.4149C747.65 84.4329 748.955 82.7644 750.523 81.4411L728.027 21.6583C724.76 22.9542 722.466 25.9502 722.139 29.4501L713.79 110.993C713.167 117.071 715.542 123.086 720.143 127.109L753.495 156.169L755.619 158.036L805.983 139.084Z" fill="#F9F871"/>
<path d="M72.5152 194.245C62.1552 194.245 52.5352 192.642 43.6552 189.435C34.8986 186.105 27.2519 181.418 20.7152 175.375C14.3019 169.332 9.3069 162.178 5.73023 153.915C2.15357 145.652 0.365234 136.525 0.365234 126.535C0.365234 116.545 2.15357 107.418 5.73023 99.1549C9.3069 90.8916 14.3019 83.7383 20.7152 77.695C27.2519 71.6516 34.8986 67.0266 43.6552 63.82C52.5352 60.49 62.1552 58.825 72.5152 58.825C85.2186 58.825 96.4419 61.045 106.185 65.485C116.052 69.9249 124.192 76.3383 130.605 84.7249L103.04 109.33C99.2169 104.52 94.9619 100.82 90.2752 98.2299C85.7119 95.5166 80.5319 94.16 74.7352 94.16C70.1719 94.16 66.0402 94.8999 62.3402 96.38C58.6402 97.8599 55.4336 100.018 52.7202 102.855C50.1302 105.692 48.0952 109.145 46.6152 113.215C45.1352 117.162 44.3952 121.602 44.3952 126.535C44.3952 131.468 45.1352 135.97 46.6152 140.04C48.0952 143.987 50.1302 147.378 52.7202 150.215C55.4336 153.052 58.6402 155.21 62.3402 156.69C66.0402 158.17 70.1719 158.91 74.7352 158.91C80.5319 158.91 85.7119 157.615 90.2752 155.025C94.9619 152.312 99.2169 148.55 103.04 143.74L130.605 168.345C124.192 176.608 116.052 183.022 106.185 187.585C96.4419 192.025 85.2186 194.245 72.5152 194.245Z" fill="white"/>
<path d="M227.201 61.7849H270.861V191.285H227.201V61.7849ZM186.871 191.285H143.211V61.7849H186.871V191.285ZM230.161 143.555H183.911V107.665H230.161V143.555Z" fill="white"/>
<path d="M277.838 191.285L334.448 61.7849H377.368L433.978 191.285H388.838L347.028 82.505H364.048L322.238 191.285H277.838ZM311.508 168.715L322.608 137.265H382.178L393.278 168.715H311.508Z" fill="white"/>
<path d="M489.231 194.245C478.377 194.245 467.894 193.012 457.781 190.545C447.667 188.078 439.342 184.872 432.806 180.925L446.866 149.105C453.032 152.682 459.877 155.58 467.401 157.8C475.047 159.897 482.447 160.945 489.601 160.945C493.794 160.945 497.062 160.698 499.406 160.205C501.872 159.588 503.661 158.787 504.771 157.8C505.881 156.69 506.436 155.395 506.436 153.915C506.436 151.572 505.141 149.722 502.551 148.365C499.961 147.008 496.507 145.898 492.191 145.035C487.997 144.048 483.372 143.062 478.316 142.075C473.259 140.965 468.141 139.547 462.961 137.82C457.904 136.093 453.217 133.812 448.901 130.975C444.707 128.138 441.316 124.438 438.726 119.875C436.136 115.188 434.841 109.392 434.841 102.485C434.841 94.4683 437.061 87.1916 441.501 80.6549C446.064 73.995 452.786 68.6916 461.666 64.745C470.669 60.7983 481.831 58.825 495.151 58.825C503.907 58.825 512.541 59.75 521.051 61.5999C529.561 63.4499 537.207 66.2866 543.991 70.1099L530.856 101.745C524.442 98.5383 518.214 96.1333 512.171 94.53C506.251 92.9266 500.454 92.125 494.781 92.125C490.587 92.125 487.257 92.495 484.791 93.235C482.324 93.9749 480.536 94.9616 479.426 96.195C478.439 97.4283 477.946 98.785 477.946 100.265C477.946 102.485 479.241 104.273 481.831 105.63C484.421 106.863 487.812 107.912 492.006 108.775C496.322 109.638 501.009 110.563 506.066 111.55C511.246 112.537 516.364 113.893 521.421 115.62C526.477 117.347 531.102 119.628 535.296 122.465C539.612 125.302 543.066 129.002 545.656 133.565C548.246 138.128 549.541 143.802 549.541 150.585C549.541 158.478 547.259 165.755 542.696 172.415C538.256 178.952 531.596 184.255 522.716 188.325C513.836 192.272 502.674 194.245 489.231 194.245Z" fill="white"/>
<path d="M602.493 109.885H660.213V141.335H602.493V109.885ZM605.453 158.355H670.203V191.285H562.533V61.7849H667.798V94.715H605.453V158.355Z" fill="white"/>
<path d="M5.54523 341.285V211.785H41.4352L93.2352 296.33H74.3652L124.685 211.785H160.575L160.945 341.285H121.17L120.8 271.725H127.09L92.6802 329.63H73.4402L37.5502 271.725H45.3202V341.285H5.54523Z" fill="white"/>
<path d="M249.024 344.245C238.664 344.245 229.044 342.642 220.164 339.435C211.407 336.105 203.761 331.418 197.224 325.375C190.811 319.332 185.816 312.178 182.239 303.915C178.662 295.652 176.874 286.525 176.874 276.535C176.874 266.545 178.662 257.418 182.239 249.155C185.816 240.892 190.811 233.738 197.224 227.695C203.761 221.652 211.407 217.027 220.164 213.82C229.044 210.49 238.664 208.825 249.024 208.825C261.727 208.825 272.951 211.045 282.694 215.485C292.561 219.925 300.701 226.338 307.114 234.725L279.549 259.33C275.726 254.52 271.471 250.82 266.784 248.23C262.221 245.517 257.041 244.16 251.244 244.16C246.681 244.16 242.549 244.9 238.849 246.38C235.149 247.86 231.942 250.018 229.229 252.855C226.639 255.692 224.604 259.145 223.124 263.215C221.644 267.162 220.904 271.602 220.904 276.535C220.904 281.468 221.644 285.97 223.124 290.04C224.604 293.987 226.639 297.378 229.229 300.215C231.942 303.052 235.149 305.21 238.849 306.69C242.549 308.17 246.681 308.91 251.244 308.91C257.041 308.91 262.221 307.615 266.784 305.025C271.471 302.312 275.726 298.55 279.549 293.74L307.114 318.345C300.701 326.608 292.561 333.022 282.694 337.585C272.951 342.025 261.727 344.245 249.024 344.245Z" fill="white"/>
<path d="M384.905 344.245C374.422 344.245 364.678 342.58 355.675 339.25C346.795 335.92 339.087 331.233 332.55 325.19C326.013 319.023 320.895 311.808 317.195 303.545C313.618 295.282 311.83 286.278 311.83 276.535C311.83 266.668 313.618 257.665 317.195 249.525C320.895 241.262 326.013 234.108 332.55 228.065C339.087 221.898 346.795 217.15 355.675 213.82C364.678 210.49 374.422 208.825 384.905 208.825C395.512 208.825 405.255 210.49 414.135 213.82C423.015 217.15 430.723 221.898 437.26 228.065C443.797 234.108 448.853 241.262 452.43 249.525C456.13 257.665 457.98 266.668 457.98 276.535C457.98 286.278 456.13 295.282 452.43 303.545C448.853 311.808 443.797 319.023 437.26 325.19C430.723 331.233 423.015 335.92 414.135 339.25C405.255 342.58 395.512 344.245 384.905 344.245ZM427.27 374.03C421.227 374.03 415.615 373.413 410.435 372.18C405.255 371.07 400.198 369.158 395.265 366.445C390.455 363.732 385.398 359.97 380.095 355.16C374.792 350.473 368.872 344.615 362.335 337.585L407.475 326.485C410.435 331.048 412.963 334.563 415.06 337.03C417.157 339.497 419.192 341.223 421.165 342.21C423.262 343.197 425.605 343.69 428.195 343.69C434.608 343.69 440.59 340.915 446.14 335.365L465.01 357.565C455.76 368.542 443.18 374.03 427.27 374.03ZM384.905 308.91C388.975 308.91 392.737 308.17 396.19 306.69C399.767 305.21 402.85 303.113 405.44 300.4C408.153 297.563 410.25 294.172 411.73 290.225C413.21 286.155 413.95 281.592 413.95 276.535C413.95 271.478 413.21 266.977 411.73 263.03C410.25 258.96 408.153 255.568 405.44 252.855C402.85 250.018 399.767 247.86 396.19 246.38C392.737 244.9 388.975 244.16 384.905 244.16C380.835 244.16 377.012 244.9 373.435 246.38C369.982 247.86 366.898 250.018 364.185 252.855C361.595 255.568 359.56 258.96 358.08 263.03C356.6 266.977 355.86 271.478 355.86 276.535C355.86 281.592 356.6 286.155 358.08 290.225C359.56 294.172 361.595 297.563 364.185 300.4C366.898 303.113 369.982 305.21 373.435 306.69C377.012 308.17 380.835 308.91 384.905 308.91Z" fill="white"/>
<path d="M535.802 344.245C515.945 344.245 500.466 338.88 489.366 328.15C478.266 317.42 472.716 302.373 472.716 283.01V211.785H516.376V281.715C516.376 291.582 518.165 298.612 521.742 302.805C525.318 306.875 530.128 308.91 536.172 308.91C542.338 308.91 547.148 306.875 550.602 302.805C554.178 298.612 555.966 291.582 555.966 281.715V211.785H598.886V283.01C598.886 302.373 593.337 317.42 582.237 328.15C571.137 338.88 555.658 344.245 535.802 344.245Z" fill="white"/>
<path d="M686.795 344.245C676.311 344.245 666.568 342.58 657.565 339.25C648.685 335.92 640.976 331.233 634.44 325.19C627.903 319.023 622.785 311.808 619.085 303.545C615.508 295.282 613.72 286.278 613.72 276.535C613.72 266.668 615.508 257.665 619.085 249.525C622.785 241.262 627.903 234.108 634.44 228.065C640.976 221.898 648.685 217.15 657.565 213.82C666.568 210.49 676.311 208.825 686.795 208.825C697.401 208.825 707.145 210.49 716.025 213.82C724.905 217.15 732.613 221.898 739.15 228.065C745.686 234.108 750.743 241.262 754.32 249.525C758.02 257.665 759.87 266.668 759.87 276.535C759.87 286.278 758.02 295.282 754.32 303.545C750.743 311.808 745.686 319.023 739.15 325.19C732.613 331.233 724.905 335.92 716.025 339.25C707.145 342.58 697.401 344.245 686.795 344.245ZM686.795 308.91C690.865 308.91 694.626 308.17 698.08 306.69C701.656 305.21 704.74 303.113 707.33 300.4C710.043 297.563 712.14 294.172 713.62 290.225C715.1 286.155 715.84 281.592 715.84 276.535C715.84 271.478 715.1 266.977 713.62 263.03C712.14 258.96 710.043 255.568 707.33 252.855C704.74 250.018 701.656 247.86 698.08 246.38C694.626 244.9 690.865 244.16 686.795 244.16C682.725 244.16 678.901 244.9 675.325 246.38C671.871 247.86 668.788 250.018 666.075 252.855C663.485 255.568 661.45 258.96 659.97 263.03C658.49 266.977 657.75 271.478 657.75 276.535C657.75 281.592 658.49 286.155 659.97 290.225C661.45 294.172 663.485 297.563 666.075 300.4C668.788 303.113 671.871 305.21 675.325 306.69C678.901 308.17 682.725 308.91 686.795 308.91Z" fill="white"/>
<path d="M803.945 341.285L762.505 211.785H807.46L840.945 321.12H818.375L853.895 211.785H894.04L927.155 321.12H905.51L940.475 211.785H981.915L940.475 341.285H893.67L866.66 251.745H879.24L850.75 341.285H803.945Z" fill="white"/>
<path d="M991.61 341.285V211.785H1027.5L1093.36 290.595H1076.71V211.785H1119.26V341.285H1083.37L1017.51 262.475H1034.16V341.285H991.61Z" fill="white"/>
<path d="M1157.87 343.135C1150.96 343.135 1145.17 340.915 1140.48 336.475C1135.79 331.912 1133.45 326.115 1133.45 319.085C1133.45 311.932 1135.79 306.197 1140.48 301.88C1145.17 297.563 1150.96 295.405 1157.87 295.405C1164.78 295.405 1170.57 297.563 1175.26 301.88C1179.95 306.197 1182.29 311.932 1182.29 319.085C1182.29 326.115 1179.95 331.912 1175.26 336.475C1170.57 340.915 1164.78 343.135 1157.87 343.135Z" fill="white"/>
<path d="M972.391 54.5457C969.211 51.1359 963.871 50.9659 960.465 54.1318L870.963 137.716C867.557 140.882 867.401 146.212 870.581 149.622C873.762 153.032 879.101 153.202 882.507 150.036L972.01 66.4523C975.416 63.2864 975.571 57.9555 972.391 54.5457ZM974.372 92.5387C969.856 93.6598 967.112 98.2339 968.247 102.746L976.345 135.001L944.051 143.02C939.535 144.141 936.791 148.715 937.926 153.227C939.062 157.739 943.65 160.492 948.166 159.371L988.624 149.325C993.14 148.204 995.884 143.63 994.749 139.118L984.575 98.6917C983.44 94.1798 978.851 91.4265 974.336 92.5476L974.372 92.5387ZM905.046 50.941C903.911 46.4291 899.322 43.6758 894.806 44.797L854.348 54.8425C849.832 55.9637 847.088 60.5377 848.223 65.0496L858.397 105.476C859.532 109.988 864.121 112.741 868.636 111.62C873.152 110.499 875.897 105.925 874.761 101.413L866.627 69.1666L898.921 61.1481C903.437 60.0269 906.181 55.4529 905.046 50.941Z" fill="#FFC55D"/>
<path d="M1051.52 172.522C1051.04 174.501 1051.15 176.569 1051.84 178.481L1055.27 187.848C1056.32 190.719 1059.58 193.631 1062.55 194.346L1081.89 198.999C1084.85 199.711 1089.07 198.599 1091.31 196.519L1098.61 189.736C1099.87 188.563 1101.22 186.252 1101.62 184.577L1104.63 172.267L1054.45 160.195L1051.52 172.522ZM1110.93 35.7716C1078.92 28.1777 1049.46 48.5683 1042.49 77.5233C1039.14 91.4712 1041.23 105.428 1047.4 117.204C1051.16 124.372 1056.27 138.699 1056.86 149.885C1056.85 149.966 1056.85 150.055 1056.84 150.141L1107.08 162.228C1107.11 162.147 1107.15 162.073 1107.18 161.991C1112.79 152.296 1123.86 141.864 1130.47 137.19C1141.26 129.779 1149.46 118.319 1152.88 104.082C1160.16 73.8165 1141.41 43.1066 1110.93 35.7716ZM1121.49 124.79C1115.23 129.219 1107 136.698 1100.37 144.94L1070.7 137.802C1068.54 127.445 1064.62 117.042 1061.06 110.254C1056.41 101.384 1055.2 90.8877 1057.55 81.1449C1062.22 61.7222 1082.22 44.9072 1107.02 50.7893C1129.44 56.184 1143.1 78.5548 1137.83 100.46C1135.49 110.203 1129.65 119.007 1121.49 124.79ZM1099.86 59.7071C1086.03 56.3797 1072.06 64.9538 1068.72 78.8137C1068.05 81.5932 1069.76 84.3822 1072.53 85.0494C1075.3 85.7167 1078.09 83.9938 1078.76 81.2281C1080.76 72.909 1089.14 67.767 1097.44 69.7641C1100.21 70.4314 1103 68.7249 1103.67 65.946C1104.34 63.1671 1102.62 60.371 1099.86 59.7071Z" fill="#FF8E7A"/>
</svg>
