<svg width="88" height="88" viewBox="0 0 88 88" fill="none" xmlns="http://www.w3.org/2000/svg">
<path d="M79.5703 0.25H7.92969C3.55469 0.25 0 3.80469 0 8.17969V79.8203C0 84.1953 3.55469 87.75 7.92969 87.75H79.5703C83.9453 87.75 87.5 84.1953 87.5 79.8203V8.17969C87.5 3.80469 83.9453 0.25 79.5703 0.25ZM34.3945 22.4375C34.4727 27.0078 30.0195 27.7695 29.1992 27.7891C26.2891 27.7891 23.9063 25.4453 23.9063 22.5156C23.9258 15.6406 34.2773 15.582 34.3945 22.4375ZM65 67.6328C52.1875 67.6328 58.3398 53.1797 60.1172 46.8125C62.8711 37.75 51.2891 35.2891 48.418 46.9492L43.3789 67.125H34.5703L36.1523 60.7773C30 70.8945 17.6758 69.4492 17.6758 59.9375C17.6953 57.1445 17.8516 57.2031 22.168 39.6055H15.957L17.8516 32.6523H32.7734C26.2109 58.7656 26.4062 57.4375 26.3477 59.6445C26.3477 63.7266 34.3359 62.2812 37.5586 55.1133L41.4258 39.6055H35.1172L37.0117 32.6523H50.4492L48.7109 40.5625C56.6211 25.8164 73.6914 31.2266 68.5938 47.9844C65.8203 57.9648 65.7422 57.8867 65.6836 59.4688C65.6836 62.4961 69.1016 63.8828 71.8945 56.168L75.3906 57.4766C73.3398 64.6445 69.6484 67.6328 65 67.6328Z" fill="white"/>
</svg>
