<svg width="90" height="90" viewBox="0 0 90 90" fill="none" xmlns="http://www.w3.org/2000/svg">
<g filter="url(#filter0_d_322_103)">
<path d="M72.5 6H17.5C13.3594 6 10 9.35938 10 13.5V68.5C10 72.6406 13.3594 76 17.5 76H72.5C76.6406 76 80 72.6406 80 68.5V13.5C80 9.35938 76.6406 6 72.5 6ZM48.0938 60.5937C48.0938 67.4062 44.0937 70.5156 38.2656 70.5156C33 70.5156 29.9531 67.7969 28.3906 64.5L33.75 61.2656C34.7812 63.0938 35.7188 64.6406 37.9844 64.6406C40.1406 64.6406 41.5156 63.7969 41.5156 60.5V38.1406H48.0938V60.5937ZM63.6562 70.5156C57.5469 70.5156 53.5938 67.6094 51.6719 63.7969L57.0312 60.7031C58.4375 63 60.2812 64.7031 63.5156 64.7031C66.2344 64.7031 67.9844 63.3437 67.9844 61.4531C67.9844 59.2031 66.2031 58.4062 63.1875 57.0781L61.5469 56.375C56.7969 54.3594 53.6562 51.8125 53.6562 46.4531C53.6562 41.5156 57.4219 37.7656 63.2812 37.7656C67.4687 37.7656 70.4687 39.2188 72.625 43.0312L67.5 46.3125C66.375 44.2969 65.1562 43.5 63.2656 43.5C61.3437 43.5 60.125 44.7188 60.125 46.3125C60.125 48.2813 61.3438 49.0781 64.1719 50.3125L65.8125 51.0156C71.4063 53.4063 74.5469 55.8594 74.5469 61.3594C74.5469 67.2656 69.8906 70.5156 63.6562 70.5156Z" fill="#4D4D4D"/>
</g>
<defs>
<filter id="filter0_d_322_103" x="0" y="0" width="90" height="90" filterUnits="userSpaceOnUse" color-interpolation-filters="sRGB">
<feFlood flood-opacity="0" result="BackgroundImageFix"/>
<feColorMatrix in="SourceAlpha" type="matrix" values="0 0 0 0 0 0 0 0 0 0 0 0 0 0 0 0 0 0 127 0" result="hardAlpha"/>
<feOffset dy="4"/>
<feGaussianBlur stdDeviation="5"/>
<feComposite in2="hardAlpha" operator="out"/>
<feColorMatrix type="matrix" values="0 0 0 0 0 0 0 0 0 0 0 0 0 0 0 0 0 0 0.25 0"/>
<feBlend mode="normal" in2="BackgroundImageFix" result="effect1_dropShadow_322_103"/>
<feBlend mode="normal" in="SourceGraphic" in2="effect1_dropShadow_322_103" result="shape"/>
</filter>
</defs>
</svg>
