<svg width="115" height="166" viewBox="0 0 115 166" fill="none" xmlns="http://www.w3.org/2000/svg">
<path d="M11.4974 139.03C11.0213 141.009 11.1263 143.077 11.8169 144.988L15.2496 154.356C16.3006 157.227 19.5545 160.139 22.5244 160.854L41.8646 165.507C44.8244 166.219 49.0473 165.107 51.2895 163.026L58.5876 156.244C59.8446 155.071 61.2002 152.76 61.6032 151.085L64.6074 138.775L14.4301 126.703L11.4974 139.03ZM70.9059 2.27938C38.9 -5.31445 9.43727 15.0761 2.47099 44.0311C-0.884741 57.979 1.21165 71.9354 7.3757 83.7118C11.1351 90.8801 16.2509 105.207 16.8374 116.393C16.8284 116.474 16.8278 116.563 16.8175 116.648L67.0575 128.736C67.0874 128.655 67.126 128.58 67.1558 128.499C72.7646 118.804 83.8388 108.372 90.4473 103.698C101.238 96.2866 109.436 84.8269 112.861 70.5899C120.143 40.3243 101.388 9.61444 70.9059 2.27938ZM81.4706 91.2981C75.2098 95.7265 66.9809 103.206 60.3499 111.448L30.6794 104.31C28.5232 93.9531 24.5967 83.5494 21.0376 76.7618C16.3838 67.8921 15.1802 57.3956 17.5242 47.6528C22.1971 28.23 42.2003 11.415 66.9942 17.2971C89.4172 22.6918 103.078 45.0626 97.8078 66.9682C95.4638 76.711 89.63 85.5145 81.4706 91.2981ZM59.8391 26.2149C46.009 22.8875 32.036 31.4616 28.7014 45.3215C28.0327 48.101 29.7358 50.89 32.5093 51.5573C35.2829 52.2245 38.0715 50.5016 38.7369 47.7359C40.7383 39.4168 49.1183 34.2748 57.4195 36.272C60.193 36.9392 62.9777 35.2327 63.6463 32.4538C64.3149 29.6749 62.5989 26.8788 59.8391 26.2149Z" fill="#FF5C00"/>
</svg>
