<svg width="160" height="190" viewBox="0 0 160 190" fill="none" xmlns="http://www.w3.org/2000/svg">
<g clip-path="url(#clip0_254_470)">
<path d="M39.5189 151.237C39.0427 153.216 39.1478 155.284 39.8384 157.196L43.2711 166.563C44.3221 169.434 47.576 172.346 50.5459 173.061L69.8861 177.714C72.8459 178.426 77.0687 177.314 79.3109 175.234L86.6091 168.451C87.8661 167.278 89.2216 164.967 89.6247 163.292L92.6289 150.982L42.4516 138.91L39.5189 151.237ZM98.9274 14.4866C66.9215 6.89276 37.4588 27.2833 30.4925 56.2383C27.1367 70.1862 29.2331 84.1426 35.3972 95.919C39.1566 103.087 44.2724 117.414 44.8589 128.6C44.8498 128.681 44.8493 128.77 44.839 128.856L95.079 140.943C95.1089 140.862 95.1475 140.788 95.1773 140.706C100.786 131.011 111.86 120.579 118.469 115.905C129.259 108.494 137.457 97.0341 140.882 82.7971C148.164 52.5315 129.41 21.8217 98.9274 14.4866ZM109.492 103.505C103.231 107.934 95.0024 115.413 88.3714 123.655L58.7009 116.517C56.5447 106.16 52.6181 95.7567 49.0591 88.969C44.4053 80.0993 43.2016 69.6028 45.5457 59.86C50.2186 40.4372 70.2218 23.6223 95.0157 29.5043C117.439 34.8991 131.1 57.2698 125.829 79.1754C123.485 88.9182 117.652 97.7217 109.492 103.505ZM87.8606 38.4221C74.0305 35.0947 60.0574 43.6688 56.7229 57.5287C56.0542 60.3082 57.7572 63.0972 60.5308 63.7645C63.3043 64.4318 66.0929 62.7088 66.7583 59.9431C68.7598 51.6241 77.1398 46.482 85.441 48.4792C88.2145 49.1465 90.9992 47.4399 91.6678 44.661C92.3363 41.8821 90.6204 39.0861 87.8606 38.4221Z" fill="#009AFA"/>
</g>
<defs>
<clipPath id="clip0_254_470">
<rect width="123.862" height="165.505" fill="white" transform="translate(38.7148) rotate(13.5277)"/>
</clipPath>
</defs>
</svg>
