<svg width="200" height="200" viewBox="0 0 200 200" fill="none" xmlns="http://www.w3.org/2000/svg">
<g clip-path="url(#clip0_254_435)">
<path d="M149.661 158.594L141.476 136.903L92.7467 155.24L100.905 176.919C104.112 185.442 113.594 189.739 122.117 186.532L140.048 179.806C148.572 176.599 152.868 167.118 149.661 158.594ZM138.983 127.799L139.35 124.995L145.27 81.1562C146.078 75.098 143.924 69.0213 139.422 64.8504L79.4138 9.05281C76.8485 6.66349 73.1338 5.88411 69.8498 7.07547L92.3196 66.8462C94.3711 66.8074 96.4523 67.2017 98.4343 68.0998C105.532 71.3163 108.681 79.6843 105.464 86.782C102.248 93.8797 93.8799 97.0286 86.7823 93.8122C79.6846 90.5957 76.5357 82.2277 79.7521 75.13C80.6503 73.148 81.9552 71.4795 83.5234 70.1563L61.0269 10.3734C57.76 11.6694 55.4661 14.6653 55.1391 18.1652L46.7901 99.7083C46.1667 105.786 48.5415 111.801 53.1432 115.824L86.4951 144.884L88.6193 146.751L138.983 127.799Z" fill="#009AFA"/>
</g>
<defs>
<clipPath id="clip0_254_435">
<rect width="150.556" height="150.556" fill="white" transform="translate(199.276 62.1439) rotate(114.378)"/>
</clipPath>
</defs>
</svg>
