<svg width="105" height="182" viewBox="0 0 105 182" fill="none" xmlns="http://www.w3.org/2000/svg">
<path d="M103.862 152.888L95.6771 131.196L46.9479 149.533L55.1058 171.212C58.3133 179.736 67.7947 184.033 76.3184 180.825L94.249 174.1C102.773 170.893 107.069 161.411 103.862 152.888ZM93.1844 122.093L93.5512 119.289L99.4707 75.45C100.279 69.3918 98.1257 63.3151 93.6236 59.1442L33.615 3.3466C31.0496 0.957285 27.335 0.177902 24.051 1.36926L46.5208 61.14C48.5722 61.1012 50.6534 61.4955 52.6354 62.3936C59.7331 65.6101 62.882 73.9781 59.6656 81.0758C56.4492 88.1735 48.0811 91.3224 40.9834 88.106C33.8858 84.8895 30.7369 76.5215 33.9533 69.4238C34.8515 67.4418 36.1564 65.7733 37.7246 64.45L15.228 4.66716C11.9612 5.96315 9.66726 8.95912 9.34029 12.459L0.991248 94.0021C0.367885 100.08 2.74267 106.095 7.34437 110.118L40.6962 139.178L42.8205 141.045L93.1844 122.093Z" fill="#FF5C00"/>
</svg>
