<svg width="112" height="57" viewBox="0 0 112 57" fill="none" xmlns="http://www.w3.org/2000/svg">
<path fill-rule="evenodd" clip-rule="evenodd" d="M10 0C4.47715 0 0 4.47715 0 10V47C0 52.5228 4.47714 57 9.99999 57H101.185C106.708 57 111.185 52.5228 111.185 47V10C111.185 4.47715 106.708 0 101.185 0H10ZM29.5387 43.7591C31.7004 44.5398 34.0424 44.9301 36.5644 44.9301C39.657 44.9301 42.3892 44.3896 44.7612 43.3087C45.8254 42.8166 46.8071 42.236 47.7062 41.567C49.6102 40.1504 49.3322 37.3985 47.5618 35.8182L47.1082 35.4134C45.4187 33.9053 42.848 34.2475 40.888 35.3822C39.7771 36.0127 38.516 36.328 37.1049 36.328C35.994 36.328 34.9881 36.1479 34.0874 35.7876C33.1867 35.4273 32.406 34.9018 31.7455 34.2113C31.115 33.5207 30.6196 32.695 30.2593 31.7342C29.899 30.7434 29.7188 29.6475 29.7188 28.4465C29.7188 27.2455 29.899 26.1646 30.2593 25.2039C30.6196 24.213 31.115 23.3723 31.7455 22.6818C32.406 21.9912 33.1867 21.4658 34.0874 21.1055C34.9881 20.7452 35.994 20.565 37.1049 20.565C38.516 20.565 39.7771 20.8953 40.888 21.5559C42.8573 22.6441 45.4094 22.9961 47.0879 21.4978L47.5738 21.0641C49.3408 19.4868 49.6312 16.7392 47.7323 15.3233C46.8261 14.6475 45.8357 14.0678 44.7612 13.5843C42.3892 12.5034 39.657 11.963 36.5644 11.963C34.0424 11.963 31.7004 12.3683 29.5387 13.179C27.4069 13.9596 25.5454 15.0855 23.9541 16.5567C22.3928 18.028 21.1768 19.7694 20.3061 21.781C19.4354 23.7927 19 26.0145 19 28.4465C19 30.8785 19.4354 33.1003 20.3061 35.112C21.1768 37.1237 22.3928 38.8651 23.9541 40.3363C25.5454 41.8075 27.4069 42.9484 29.5387 43.7591ZM53.7749 39.368C53.7749 42.0419 55.9425 44.2095 58.6164 44.2095C61.2903 44.2095 63.4579 42.0419 63.4579 39.368V30.3274L69.0832 39.4033C69.8419 40.6274 71.1797 41.3721 72.6199 41.3721C74.0877 41.3721 75.447 40.5987 76.1968 39.3369L81.8466 29.8295L81.8974 39.3879C81.9116 42.0549 84.0777 44.2095 86.7448 44.2095C89.4273 44.2095 91.5998 42.0308 91.5921 39.3482L91.5319 18.248C91.5231 15.1723 89.0272 12.6836 85.9515 12.6836C83.9842 12.6836 82.1623 13.7194 81.1561 15.4099L72.7923 29.4623L64.1508 15.3582C63.1328 13.6965 61.3241 12.6836 59.3754 12.6836C56.2823 12.6836 53.7749 15.191 53.7749 18.284V39.368Z" fill="url(#paint0_linear_309_871)"/>
<defs>
<linearGradient id="paint0_linear_309_871" x1="55.5926" y1="0" x2="55.5926" y2="57" gradientUnits="userSpaceOnUse">
<stop stop-color="#F9F871"/>
<stop offset="0.390625" stop-color="#FFC55D"/>
<stop offset="0.90625" stop-color="#FF8E79"/>
</linearGradient>
</defs>
</svg>
