<svg width="100" height="101" viewBox="0 0 100 101" fill="none" xmlns="http://www.w3.org/2000/svg">
<g filter="url(#filter0_d_323_109)">
<path d="M75 38.5C75 45.6719 72.6719 52.2969 68.75 57.6719L88.5313 77.4687C90.4844 79.4219 90.4844 82.5938 88.5313 84.5469C86.5781 86.5 83.4062 86.5 81.4531 84.5469L61.6719 64.75C56.2969 68.6875 49.6719 71 42.5 71C24.5469 71 10 56.4531 10 38.5C10 20.5469 24.5469 6 42.5 6C60.4531 6 75 20.5469 75 38.5ZM42.5 61C54.9219 61 65 50.9219 65 38.5C65 26.0781 54.9219 16 42.5 16C30.0781 16 20 26.0781 20 38.5C20 50.9219 30.0781 61 42.5 61Z" fill="#4D4D4D"/>
</g>
<defs>
<filter id="filter0_d_323_109" x="0" y="0" width="99.9961" height="100.012" filterUnits="userSpaceOnUse" color-interpolation-filters="sRGB">
<feFlood flood-opacity="0" result="BackgroundImageFix"/>
<feColorMatrix in="SourceAlpha" type="matrix" values="0 0 0 0 0 0 0 0 0 0 0 0 0 0 0 0 0 0 127 0" result="hardAlpha"/>
<feOffset dy="4"/>
<feGaussianBlur stdDeviation="5"/>
<feComposite in2="hardAlpha" operator="out"/>
<feColorMatrix type="matrix" values="0 0 0 0 0 0 0 0 0 0 0 0 0 0 0 0 0 0 0.25 0"/>
<feBlend mode="normal" in2="BackgroundImageFix" result="effect1_dropShadow_323_109"/>
<feBlend mode="normal" in="SourceGraphic" in2="effect1_dropShadow_323_109" result="shape"/>
</filter>
</defs>
</svg>
